<svg width="35" height="35" viewBox="0 0 35 35" fill="none" xmlns="http://www.w3.org/2000/svg">
<g clip-path="url(#clip0_867_1697)">
<path d="M21.9081 23.1454H27.5942V25.9884H21.9081V23.1454ZM21.9081 11.7732H31.8587V14.6162H21.9081V11.7732ZM21.9081 17.4593H30.4372V20.3023H21.9081V17.4593ZM4.84975 25.9884C4.84975 27.5521 6.12912 28.8315 7.6928 28.8315H16.222C17.7856 28.8315 19.065 27.5521 19.065 25.9884V11.7732H4.84975V25.9884ZM7.6928 14.6162H16.222V25.9884H7.6928V14.6162ZM14.8004 6.08708H9.11433L7.6928 7.50861H3.42822V10.3517H20.4865V7.50861H16.222L14.8004 6.08708Z" fill="white"/>
</g>
<defs>
<clipPath id="clip0_867_1697">
<rect width="34.1166" height="34.1166" fill="white" transform="translate(0.585205 0.400978)"/>
</clipPath>
</defs>
</svg>
