<svg width="40" height="41" viewBox="0 0 40 41" fill="none" xmlns="http://www.w3.org/2000/svg">
<path fill-rule="evenodd" clip-rule="evenodd" d="M16.8558 5.59363C10.4966 5.59363 5.34143 10.7488 5.34143 17.108C5.34143 23.4672 10.4966 28.6223 16.8558 28.6223C19.4421 28.6223 21.8293 27.7696 23.7515 26.33L30.497 33.0754C31.1393 33.7178 32.1808 33.7178 32.8232 33.0754C33.4656 32.433 33.4656 31.3915 32.8232 30.7492L26.0778 24.0037C27.5174 22.0815 28.3701 19.6943 28.3701 17.108C28.3701 10.7488 23.215 5.59363 16.8558 5.59363ZM8.63125 17.108C8.63125 12.5657 12.3135 8.88344 16.8558 8.88344C21.3981 8.88344 25.0803 12.5657 25.0803 17.108C25.0803 21.6503 21.3981 25.3325 16.8558 25.3325C12.3135 25.3325 8.63125 21.6503 8.63125 17.108Z" fill="url(#paint0_linear_867_3879)"/>
<defs>
<linearGradient id="paint0_linear_867_3879" x1="-22.6221" y1="-20.2727" x2="-36.2513" y2="22.5057" gradientUnits="userSpaceOnUse">
<stop stop-color="#3AB648"/>
<stop offset="1" stop-color="#526430"/>
</linearGradient>
</defs>
</svg>
