<svg width="220" height="52" viewBox="0 0 220 52" fill="none" xmlns="http://www.w3.org/2000/svg">
<g clip-path="url(#clip0)">
<path d="M121.925 26.337C126.708 22.7846 131.491 19.2322 136.211 15.6798C136.646 15.3735 137.019 15.006 137.391 14.6998C140.124 12.8011 143.168 12.9236 144.596 14.9448C146.025 17.0272 145.217 19.7834 142.484 21.6821C139.814 23.5808 137.205 25.602 134.41 27.3782C132.919 28.3582 132.671 29.3382 133.354 30.9306C135.031 34.6668 136.522 38.4642 138.137 42.2004C139.814 46.2428 139.13 49.0602 136.087 50.2852C132.671 51.6326 129.689 50.1627 128.012 46.304C126.708 43.3028 125.279 40.3629 124.161 37.3005C123.478 35.5855 122.919 35.7693 121.491 36.6268C118.944 38.2805 117.081 40.1792 116.584 43.2416C116.335 44.7116 115.838 46.2428 115.155 47.5902C113.851 50.1627 110.932 51.2652 108.323 50.3464C106.025 49.5502 104.969 47.284 105.776 44.2828C108.509 34.1768 111.242 24.0708 114.037 13.9036C114.72 11.4536 115.342 9.00368 116.025 6.55374C116.397 5.20627 116.832 3.79756 117.64 2.63383C119.192 0.367639 121.988 -0.673586 124.41 0.428888C127.019 1.53136 127.267 3.79756 126.708 6.125C125.279 11.8211 123.665 17.5172 122.174 23.2133C121.925 24.1321 121.18 25.0508 121.925 26.337Z" fill="white"/>
<path d="M146.335 31.6042C146.584 25.2956 150.869 18.8032 158.696 15.0671C165.59 11.7597 172.795 11.8209 179.255 16.4758C185.155 20.7019 186.584 26.9493 185.342 33.6254C183.168 44.9564 172.484 52.3062 160.932 50.8975C152.05 49.795 146.273 43.1189 146.335 31.6042ZM156.708 33.6866C156.522 40.6077 162.422 44.2214 168.696 41.0977C172.857 39.0152 175.776 33.5029 175.155 28.848C174.534 24.0706 170.87 21.3144 166.025 21.9882C160.932 22.7231 156.832 27.8068 156.708 33.6866Z" fill="white"/>
<path d="M84.7827 51.0202C79.8758 51.1427 75.4038 49.6727 71.3044 47.039C68.6336 45.3241 67.8261 42.5679 69.3168 40.5467C70.9317 38.2805 73.2299 37.9742 76.087 39.8117C79.0684 41.7717 82.174 43.2416 85.9007 42.9966C87.6398 42.8741 89.3168 42.5679 89.7516 40.6079C90.1864 38.7092 88.6957 37.913 87.2671 37.3005C85.4038 36.443 83.4783 35.6468 81.6771 34.6668C77.8261 32.7069 74.7826 30.1957 74.969 25.2958C75.1553 20.1509 77.5156 16.4148 82.174 14.4548C89.0063 11.6374 95.7765 12.6174 102.05 16.476C104.286 17.8235 104.845 19.9059 103.478 22.2946C102.112 24.5608 99.8137 25.2346 97.3292 23.7033C94.6584 22.0496 91.8634 20.8247 88.6336 21.0084C86.9566 21.1309 85.4659 21.6821 85.0932 23.4583C84.7205 25.0508 86.1491 25.847 87.2671 26.4595C89.0684 27.4395 90.9938 28.2357 92.8572 29.1545C98.6957 32.0331 100.435 34.6056 99.9379 39.9954C99.5653 44.7116 95.8386 48.8765 90.6833 50.3464C88.6957 50.8977 86.7702 51.0814 84.7827 51.0202Z" fill="white"/>
<path d="M31.4284 44.5887C32.9812 44.4662 34.534 44.4662 36.0868 44.2825C38.3228 43.9762 39.9378 42.8125 40.5589 40.6076C41.1179 38.4026 39.9378 36.8714 38.3228 35.5852C35.7763 33.564 32.4222 33.1965 29.6272 31.6653C25.7142 29.5828 23.7887 26.2142 24.9688 22.0493C27.3912 13.597 34.9067 7.90087 44.534 13.2295C45.7763 13.9032 46.8943 14.8832 47.9502 15.8019C51.18 18.6806 51.8632 18.7419 55.2794 16.0469C55.7763 15.6794 56.2732 15.3119 56.8322 15.0057C58.385 14.2095 59.8756 14.5157 61.0558 15.7407C62.3601 17.0269 62.1738 18.4356 61.3042 19.9056C58.7576 24.0705 51.9874 25.6017 47.2048 22.968C45.3415 21.9268 43.6645 20.4568 41.9874 19.1706C40.1241 17.7006 37.9502 17.3944 35.9005 18.3744C33.7887 19.2931 32.6707 21.253 32.3601 23.458C31.9874 25.7854 33.6024 27.0104 35.5278 27.8066C38.7576 29.2153 41.9253 30.6853 44.7825 32.7678C49.2545 36.0752 49.9999 39.8113 47.1427 44.4662C43.5402 50.2848 33.1055 53.7148 26.7079 51.1423C25.0309 50.4686 23.975 49.2436 24.0992 47.4062C24.2235 45.3237 25.7763 44.7112 27.4533 44.4662C28.7576 44.2825 30.1241 44.405 31.4906 44.405C31.4284 44.405 31.4284 44.5275 31.4284 44.5887Z" fill="white"/>
<path d="M207.454 18.6808C208.634 17.3333 209.379 16.4146 210.249 15.6183C212.236 13.7196 214.534 12.8009 217.267 13.6584C219.317 14.3321 220 16.1083 220 18.007C220 20.8245 218.199 22.4782 215.59 23.1519C207.826 25.2956 204.037 30.808 202.174 38.0965C201.553 40.669 200.745 43.1802 200 45.7526C199.503 47.4676 198.634 48.9375 197.019 49.9175C195.28 50.9587 193.416 51.02 191.677 50.1625C189.938 49.2438 189.255 47.5901 189.627 45.7526C190.435 42.0777 191.367 38.464 192.298 34.7891C193.727 29.4605 195.218 24.1931 196.646 18.9258C196.77 18.5583 196.895 18.1295 197.019 17.762C198.013 15.0058 199.876 13.2296 202.981 13.3521C206.087 13.4134 207.454 15.2508 207.454 18.6808Z" fill="white"/>
<path d="M22.4223 26.4595C23.1676 27.8069 23.4782 29.2769 24.4098 29.8281C27.9502 32.0943 25.7763 33.6868 23.9751 35.2793C18.5092 40.1792 11.8633 42.8128 5.03097 45.079C2.85705 45.814 0.869477 45.1403 0.186247 42.6291C-0.496983 40.1792 0.9937 39.1379 3.04339 38.4029C4.96885 37.7292 6.89432 36.933 8.81979 36.3205C14.3477 34.5443 19.1925 31.7881 22.4223 26.4595Z" fill="white"/>
<path d="M28.9441 12.1884C27.4535 14.0259 25.5901 15.5571 24.6584 17.762C24.5342 18.007 24.2858 18.3133 24.0373 18.3745C19.7516 19.1095 15.8386 20.8857 11.8634 22.6007C10.3106 23.2744 9.00625 21.2532 9.19259 19.4157C9.37892 17.272 10.559 15.6796 12.4845 14.5771C16.8323 12.1272 23.5404 11.0859 28.9441 12.1884Z" fill="white"/>
<path d="M45.7143 0.244873C48.1367 0.244873 50.1864 2.26607 50.1864 4.71602C50.1864 7.16596 48.1367 9.18716 45.6522 9.18716C43.2299 9.18716 41.1802 7.16596 41.1802 4.65477C41.2423 2.26607 43.2299 0.244873 45.7143 0.244873Z" fill="white"/>
</g>
<defs>
<clipPath id="clip0">
<rect width="220" height="52" fill="white"/>
</clipPath>
</defs>
</svg>
